<svg xmlns="http://www.w3.org/2000/svg" xmlns:xlink="http://www.w3.org/1999/xlink" version="1.1" x="0px" y="0px" viewBox="0 0 66 82.5" enable-background="new 0 0 66 66" xml:space="preserve"><g><g><path d="M32.2,25.1c-4.8,0-9,1.2-12.7,2.8L32.2,1.6C32.3,1.2,32.7,1,33,1c0.4,0,0.7,0.2,0.9,0.6l13,27.2    C42,26.3,37.1,25.1,32.2,25.1z"/><path d="M63.6,64c0,0.5-0.4,1-1,1c0,0,0,0,0,0H3.4c-0.3,0-0.6-0.2-0.8-0.5c-0.2-0.3-0.2-0.6-0.1-0.9l8-16.7    c7.1,6.3,14.5,9.5,22.3,9.5c10,0,18.1-5.4,22.8-9.5l7.9,16.6C63.5,63.6,63.6,63.8,63.6,64z"/></g><g><path d="M36.2,40.8c0,1.9-1.5,3.5-3.3,3.5c-1.8,0-3.2-1.6-3.2-3.5c0-1.9,1.5-3.5,3.2-3.5C34.7,37.3,36.2,38.9,36.2,40.8z"/><path d="M32.9,29.6c-5.8,0-10.6,5-10.6,11.2c0,6.2,4.8,11.2,10.6,11.2c5.8,0,10.6-5,10.6-11.2C43.6,34.6,38.8,29.6,32.9,29.6z     M32.9,46.2c-2.9,0-5.2-2.4-5.2-5.4c0-3,2.3-5.4,5.2-5.4c2.9,0,5.2,2.4,5.2,5.4C38.1,43.8,35.8,46.2,32.9,46.2z"/><path d="M58.5,39.7C49.9,31.3,41,27.1,32.2,27.1c-15,0-24.5,12.3-24.9,12.8c-0.3,0.4-0.3,0.9,0,1.2c8,8.9,16.5,13.4,25.4,13.4    c15,0,25.4-12.9,25.8-13.5C58.9,40.6,58.8,40.1,58.5,39.7z M32.9,53.9c-6.9,0-12.5-5.9-12.5-13.1c0-7.2,5.6-13.1,12.5-13.1    c6.9,0,12.5,5.9,12.5,13.1C45.5,48,39.9,53.9,32.9,53.9z"/></g></g><text x="0" y="81" fill="#000000" font-size="5px" font-weight="bold" font-family="'Helvetica Neue', Helvetica, Arial-Unicode, Arial, Sans-serif">Created by ProSymbols</text><text x="0" y="86" fill="#000000" font-size="5px" font-weight="bold" font-family="'Helvetica Neue', Helvetica, Arial-Unicode, Arial, Sans-serif">from the Noun Project</text></svg>